<?xml version="1.0" encoding="UTF-8"?>
<!DOCTYPE svg PUBLIC "-//W3C//DTD SVG 1.1//EN" "http://www.w3.org/Graphics/SVG/1.1/DTD/svg11.dtd">
<!-- Creator: CorelDRAW 2019 (64-Bit) -->
<svg xmlns="http://www.w3.org/2000/svg" xml:space="preserve" width="76.7042mm" height="106.046mm" version="1.1" style="shape-rendering:geometricPrecision; text-rendering:geometricPrecision; image-rendering:optimizeQuality; fill-rule:evenodd; clip-rule:evenodd"
viewBox="0 0 7742.9 10704.8"
 xmlns:xlink="http://www.w3.org/1999/xlink"
 xmlns:xodm="http://www.corel.com/coreldraw/odm/2003">
 <defs>
  <style type="text/css">
   <![CDATA[
    .fil0 {fill:#2824CC}
    .fil1 {fill:#3834E4}
   ]]>
  </style>
 </defs>
 <g id="Capa_x0020_1">
  <metadata id="CorelCorpID_0Corel-Layer"/>
  <path class="fil0" d="M5483.34 5192.23c9.46,-1024.55 38.17,-1293.76 -177.34,-2252.07 -151.56,-673.94 -382.3,-1177.77 -741.34,-1692.99 -21.08,-30.24 -31.65,-47.87 -55.05,-77.67l-520.5 -548.34c-234,-200.63 -1477.67,-1096.79 -1461.16,-290.27 42.23,2061.91 -877.26,2744.71 -1818.69,4285.91 -288.37,472.08 -617.36,1084.78 -682.05,1752.14 -78.13,805.99 7.55,1418 315.81,2090.01 501.75,1093.83 1467.49,1867.1 2695.14,2163.33 650.89,157.07 1514.88,78.51 2142.93,-139.68 660.94,-229.61 1074.25,-548.71 1496.66,-964.01 423.73,-416.61 706.34,-936.57 907.98,-1523.96 198.58,-578.5 208.63,-1582.3 32.22,-2183.26 -185.82,-633.01 -474.79,-1153.36 -865.14,-1569.06 -103.85,-110.61 -280.64,-186.85 -405.75,-21.34 -36.84,48.75 -96.66,235.75 -202.34,410.58 -107.6,178.02 -449.39,520.83 -661.37,560.66z"/>
  <path class="fil1" d="M5054.52 8294.52c-156.76,71.09 -367.09,337.02 -667.55,270.91 -281.11,-61.86 -166.67,-462.35 -175.82,-754.01 -15.28,-487.46 -191.13,-1146.29 -547.93,-1352.19 -102.69,183.15 -25.59,329.18 -319.84,846.46 -150.5,264.57 -301.98,465.04 -473.67,726.23 -385.44,586.33 -473.75,1158.35 32.12,1741.49 787.04,907.25 2390.77,300.6 2287.1,-1001.02 -18.08,-227.07 -81.72,-304.83 -134.41,-477.87z"/>
 </g>
</svg>
