<?xml version="1.0" encoding="UTF-8"?>
<!DOCTYPE svg PUBLIC "-//W3C//DTD SVG 1.1//EN" "http://www.w3.org/Graphics/SVG/1.1/DTD/svg11.dtd">
<!-- Creator: CorelDRAW 2019 (64-Bit) -->
<svg xmlns="http://www.w3.org/2000/svg" xml:space="preserve" width="76.7042mm" height="106.046mm" version="1.1" style="shape-rendering:geometricPrecision; text-rendering:geometricPrecision; image-rendering:optimizeQuality; fill-rule:evenodd; clip-rule:evenodd"
viewBox="0 0 9618.4 13297.74"
 xmlns:xlink="http://www.w3.org/1999/xlink"
 xmlns:xodm="http://www.corel.com/coreldraw/odm/2003">
 <defs>
  <style type="text/css">
   <![CDATA[
    .fil0 {fill:#30CCA6}
    .fil1 {fill:#41E9C1}
   ]]>
  </style>
 </defs>
 <g id="Capa_x0020_1">
  <metadata id="CorelCorpID_0Corel-Layer"/>
  <g id="_2506550589616">
   <path class="fil0" d="M6811.52 6449.9c11.75,-1272.72 47.41,-1607.14 -220.3,-2797.57 -188.27,-837.18 -474.9,-1463.06 -920.91,-2103.07 -26.18,-37.57 -39.31,-59.46 -68.38,-96.48l-646.58 -681.16c-290.68,-249.22 -1835.6,-1362.45 -1815.08,-360.58 52.45,2561.35 -1089.75,3409.54 -2259.22,5324.05 -358.22,586.43 -766.9,1347.54 -847.26,2176.55 -97.06,1001.22 9.38,1761.47 392.3,2596.26 623.28,1358.78 1822.94,2319.35 3347.96,2687.34 808.55,195.12 1881.82,97.53 2661.99,-173.51 821.03,-285.23 1334.45,-681.61 1859.18,-1197.52 526.36,-517.52 877.43,-1163.42 1127.91,-1893.09 246.68,-718.62 259.17,-1965.57 40.03,-2712.09 -230.83,-786.33 -589.8,-1432.72 -1074.69,-1949.12 -129.01,-137.4 -348.61,-232.11 -504.03,-26.51 -45.77,60.55 -120.08,292.85 -251.36,510.04 -133.66,221.14 -558.24,646.98 -821.57,696.46z"/>
   <path class="fil1" d="M6278.84 10303.63c-194.73,88.3 -456,418.66 -829.24,336.53 -349.2,-76.84 -207.04,-574.34 -218.4,-936.65 -18.98,-605.54 -237.42,-1423.95 -680.65,-1679.72 -127.57,227.52 -31.79,408.92 -397.32,1051.5 -186.95,328.65 -375.12,577.69 -588.41,902.14 -478.8,728.35 -588.51,1438.93 39.9,2163.32 977.67,1127.01 2969.87,373.42 2841.08,-1243.49 -22.46,-282.07 -101.52,-378.67 -166.96,-593.62z"/>
  </g>
 </g>
</svg>
